<?xml version="1.0" encoding="utf-8"?>
<!-- Generator: Adobe Illustrator 19.0.0, SVG Export Plug-In . SVG Version: 6.00 Build 0)  -->
<svg version="1.1" xmlns="http://www.w3.org/2000/svg" xmlns:xlink="http://www.w3.org/1999/xlink" x="0px" y="0px"
	 viewBox="0 0 657.6 657.6" style="enable-background:new 0 0 657.6 657.6;" xml:space="preserve">
<style type="text/css">
	.st0{display:none;}
	.st1{display:inline;fill:#00AEEF;}
	.st2{fill:#00AEEF;}
	.st3{fill:#FFFFFF;}
</style>
<g id="Layer_2" class="st0">
	<rect id="XMLID_3_" x="0" y="0" class="st1" width="657.6" height="657.6"/>
</g>
<g id="Layer_3">
</g>
<g id="Layer_1">
	<g id="XMLID_4_">
		<circle id="XMLID_2_" class="st2" cx="328.8" cy="328.8" r="328.8"/>
		<g id="XMLID_1_">
			<g id="XMLID_13_">
				<path id="XMLID_24_" class="st3" d="M478.9,455.2c-11.4,0-21.4-7.7-24.4-18.7l-24.2-90.4c-2.3-8.4-9.9-14.3-18.6-14.3
					c-1.7,0-3.4,0.2-5,0.7l-79.4,21.3c-5,1.3-9.1,4.5-11.7,9c-2.6,4.4-3.3,9.6-1.9,14.6l11.1,41.3c1.8,6.7,0.8,13.6-2.8,19.5
					c-3.6,6-9.4,10.1-16.2,11.6l-0.5,0.1c-1.8,0.4-3.6,0.6-5.4,0.6c-11.4,0-21.4-7.7-24.4-18.7l-44.3-165.3
					c-3.5-13.1,3.9-26.5,16.8-30.6c0.4-0.1,0.8-0.2,1.2-0.4c2.3-0.7,4.6-1,6.9-1c11.3,0,21.3,7.7,24.2,18.8l10.9,40.5
					c2.2,8.4,9.9,14.3,18.6,14.3c1.7,0,3.4-0.2,5-0.7l79.4-21.3c10.2-2.7,16.3-13.3,13.6-23.5l-24-89.4
					c-3.6-13.4,4.4-27.3,17.8-30.9l0.4-0.1c2.1-0.6,4.3-0.9,6.5-0.9c11.4,0,21.4,7.7,24.4,18.7l70.6,263.3
					c3.6,13.4-4.4,27.3-17.8,30.9l-0.4,0.1C483.3,454.9,481.1,455.2,478.9,455.2z"/>
				<path id="XMLID_21_" class="st2" d="M408.8,144.3c9.8,0,18.8,6.5,21.5,16.5l70.6,263.3c3.2,11.9-3.9,24-15.7,27.2l-0.4,0.1
					c-1.9,0.5-3.9,0.8-5.8,0.8c-9.8,0-18.8-6.5-21.5-16.5l-24.2-90.4c-2.7-9.9-11.6-16.5-21.5-16.5c-1.9,0-3.8,0.2-5.8,0.8
					l-79.4,21.3c-11.9,3.2-18.9,15.4-15.7,27.2l11.1,41.3c3.3,12.2-4.3,24.7-16.7,27.5c-0.1,0-0.3,0.1-0.4,0.1
					c-1.6,0.3-3.2,0.5-4.8,0.5c-9.9,0-18.8-6.6-21.5-16.5l-44.3-165.3c-3.1-11.5,3.4-23.4,14.8-27c0.4-0.1,0.7-0.2,1.1-0.3
					c2-0.6,4.1-0.9,6.1-0.9c9.7,0,18.7,6.6,21.4,16.5l10.9,40.5c2.7,9.9,11.6,16.5,21.5,16.5c1.9,0,3.8-0.2,5.8-0.8l79.4-21.3
					c11.9-3.2,18.9-15.4,15.7-27.2l-24-89.4c-3.2-11.9,3.9-24,15.7-27.2l0.4-0.1C405,144.5,406.9,144.3,408.8,144.3 M408.8,138.2
					c-2.5,0-4.9,0.3-7.3,1l-0.4,0.1c-7.3,2-13.4,6.6-17.1,13.2c-3.8,6.5-4.8,14.1-2.8,21.4l24,89.4c2.3,8.6-2.8,17.6-11.5,19.9
					l-79.4,21.3c-1.4,0.4-2.8,0.6-4.2,0.6c-7.3,0-13.8-4.9-15.7-12l-10.9-40.5c-3.3-12.4-14.5-21-27.1-21c-2.6,0-5.2,0.4-7.8,1.1
					c-0.4,0.1-0.8,0.2-1.2,0.4c-14.5,4.6-22.7,19.6-18.8,34.2l44.3,165.3c3.3,12.3,14.5,20.9,27.3,20.9c2,0,4.1-0.2,6-0.7l0.5-0.1
					c7.6-1.7,14.1-6.3,18.1-13c4-6.6,5.1-14.4,3.1-21.9l-11.1-41.3c-1.1-4.2-0.5-8.6,1.6-12.3c2.2-3.8,5.7-6.4,9.9-7.6l79.4-21.3
					c1.4-0.4,2.8-0.6,4.2-0.6c7.3,0,13.8,4.9,15.7,12l24.2,90.4c3.3,12.3,14.5,20.9,27.3,20.9c2.5,0,4.9-0.3,7.3-1l0.4-0.1
					c7.3-2,13.4-6.6,17.1-13.2c3.8-6.5,4.8-14.1,2.8-21.4l-70.6-263.3C432.7,146.9,421.5,138.2,408.8,138.2L408.8,138.2z"/>
			</g>
			<g id="XMLID_14_">
				<path id="XMLID_20_" class="st3" d="M284.8,510.2c-19.9,0-37.7-4.9-54.3-14.9c-26.1-15.8-45-44.8-56.1-86.2l-19.3-72.2
					c-5.3-19.9-7.5-38.8-6.4-56c1.1-17,5.2-32.4,12.2-45.6c7-13.2,16.9-24.7,29.3-34.1c12.5-9.5,27.8-16.7,45.4-21.4
					c14-3.8,27.4-5.7,39.8-5.7c3.8,0,7.5,0.2,11.1,0.5c15.3,1.5,29.1,5.9,41.1,13.2c12,7.3,22.4,17.4,30.9,30.1
					c4.3,6.4,8.2,13.5,11.5,21.1c2.9,6.6,2.8,14.2-0.4,20.8c-3.2,6.7-9.1,11.6-16.3,13.5l-0.8,0.2c-2.1,0.6-4.3,0.9-6.5,0.9
					c-9.8,0-18.8-5.7-22.9-14.6c-1-2.1-2.1-4.3-3.2-6.3c-4.3-7.9-9.7-14.6-16.3-20.1c-6.7-5.6-14.9-9.5-24.3-11.6
					c-3.7-0.8-7.6-1.2-11.7-1.2c-6.4,0-13.3,1-20.6,2.9c-11.1,3-20.3,7.8-27.4,14.3c-7,6.5-12.4,14.2-15.9,23
					c-3.4,8.7-5.2,18.2-5.1,28.4c0,9.9,1.4,20,4.1,30l21.8,81.5c2.9,10.9,6.8,20.8,11.5,29.4c4.9,8.9,10.9,16.3,17.8,22
					c7.2,5.9,15.6,9.8,25.1,11.5c3.3,0.6,6.7,0.9,10.3,0.9c6.6,0,13.9-1,21.4-3c12.6-3.4,22.6-8.2,29.9-14.3
					c7.4-6.3,12.7-13.6,15.6-21.7c2.8-7.9,3.9-16.5,3.3-25.6c-0.2-2.3-0.4-4.7-0.7-7.1c-1.5-12.4,6.4-24.2,18.5-27.5l0.5-0.1
					c2.2-0.6,4.4-0.9,6.6-0.9c12.7,0,23.5,9.5,25,22.1c3.1,25.7-0.6,48.2-11,66.8c-13.7,24.6-39.3,42.1-76,51.9
					C309.4,508.4,296.6,510.2,284.8,510.2z"/>
				<path id="XMLID_17_" class="st2" d="M275.5,177.2c3.7,0,7.3,0.2,10.8,0.5c14.8,1.4,28.2,5.7,39.8,12.8
					c11.6,7.1,21.7,16.9,30,29.2c4.2,6.2,8,13.1,11.3,20.6c5.4,12.4-1.6,26.7-14.7,30.2l-0.8,0.2c-1.9,0.5-3.8,0.8-5.8,0.8
					c-8.5,0-16.4-4.9-20.2-12.9c-1-2.2-2.1-4.4-3.3-6.5c-4.4-8.2-10.2-15.3-17-21c-7.1-5.9-15.7-10.1-25.5-12.3
					c-3.9-0.9-8-1.3-12.3-1.3c-6.6,0-13.8,1-21.4,3c-11.6,3.1-21.2,8.1-28.7,15c-7.4,6.8-13,14.9-16.6,24.1
					c-3.6,9-5.4,18.9-5.3,29.5c0,10.2,1.5,20.5,4.2,30.8l21.8,81.5c3,11.2,7,21.3,11.8,30.1c5,9.2,11.3,16.9,18.5,22.9
					c7.6,6.2,16.5,10.3,26.5,12.1c3.4,0.6,7,0.9,10.8,0.9c6.9,0,14.3-1.1,22.2-3.2c13-3.5,23.4-8.5,31-14.9
					c7.8-6.6,13.4-14.3,16.5-23c3-8.3,4.1-17.3,3.5-26.8c-0.2-2.4-0.4-4.9-0.7-7.3c-1.4-11,5.6-21.3,16.3-24.2l0.5-0.1
					c1.9-0.5,3.9-0.8,5.8-0.8c10.9,0,20.7,8.1,22,19.5c3,25.1-0.5,46.9-10.6,65c-13.3,23.9-38.3,40.9-74.2,50.5
					c-13.1,3.5-25.5,5.3-37.2,5.3c-19.3,0-36.7-4.8-52.7-14.5c-25.4-15.4-43.8-43.8-54.7-84.4L158,336.1
					c-5.3-19.6-7.4-38.1-6.3-55.1c1-16.6,5-31.5,11.9-44.4c6.8-12.8,16.4-23.9,28.4-33.1c12.2-9.2,27.1-16.2,44.4-20.9
					C250.2,179,263.3,177.2,275.5,177.2 M275.5,171.2c-12.7,0-26.4,1.9-40.6,5.8c-18,4.8-33.7,12.2-46.5,21.9
					c-12.8,9.7-22.9,21.5-30.1,35c-7.2,13.6-11.4,29.4-12.5,46.8c-1.1,17.6,1.1,36.7,6.5,57l19.3,72.2c11.3,42.2,30.6,71.8,57.4,88
					c17.1,10.3,35.3,15.4,55.8,15.4c12.1,0,25.1-1.8,38.7-5.5c37.5-10.1,63.7-28,77.9-53.4c10.7-19.2,14.5-42.3,11.3-68.6
					c-1.7-14.1-13.7-24.8-28-24.8c-2.5,0-4.9,0.3-7.3,1l-0.5,0.1c-13.5,3.6-22.4,16.8-20.7,30.7c0.3,2.3,0.5,4.7,0.7,7
					c0.6,8.7-0.5,16.9-3.2,24.4c-2.7,7.6-7.7,14.5-14.7,20.4c-6.9,5.8-16.6,10.5-28.7,13.7c-7.3,2-14.2,2.9-20.6,2.9
					c-3.4,0-6.7-0.3-9.7-0.8c-9-1.6-17-5.2-23.8-10.8c-6.7-5.5-12.4-12.6-17.1-21.1c-4.6-8.4-8.4-18.1-11.3-28.8L206,318.3
					c-2.6-9.8-4-19.6-4-29.3c0-9.8,1.6-18.9,4.9-27.2c3.3-8.4,8.4-15.7,15.1-21.9c6.7-6.2,15.5-10.7,26.2-13.6
					c7-1.9,13.7-2.8,19.8-2.8c3.9,0,7.6,0.4,11,1.2c8.9,2,16.6,5.7,23,11c6.3,5.3,11.5,11.7,15.6,19.3c1.1,2,2.1,4.1,3.1,6.2
					c4.6,9.9,14.6,16.4,25.6,16.4c2.5,0,4.9-0.3,7.3-1l0.8-0.2c8-2.1,14.6-7.6,18.2-15.1c3.5-7.4,3.7-15.9,0.4-23.3
					c-3.4-7.8-7.4-15.1-11.8-21.6c-8.8-13-19.5-23.4-31.9-30.9c-12.4-7.5-26.6-12.1-42.4-13.6C283.2,171.3,279.4,171.2,275.5,171.2
					L275.5,171.2z"/>
			</g>
		</g>
		<path id="XMLID_29_" class="st3" d="M394.5,38.9l-268.8,72c-7.7,2.1-13.7,8-15.7,15.7l-72,268.8c-2.1,7.7,0.1,15.9,5.8,21.5
			l196.8,196.8c5.6,5.6,13.8,7.8,21.5,5.8l268.8-72c7.7-2.1,13.7-8,15.7-15.7l72-268.8c2.1-7.7-0.1-15.9-5.8-21.5L416,44.7
			C410.3,39.1,402.2,36.9,394.5,38.9z M501.4,518.1l-228.7,61.3c-7.7,2.1-15.9-0.1-21.5-5.8L83.8,406.2c-5.6-5.6-7.8-13.8-5.8-21.5
			L139.3,156c2.1-7.7,8-13.7,15.7-15.7L383.7,79c7.7-2.1,15.9,0.1,21.5,5.8l167.4,167.4c5.6,5.6,7.8,13.8,5.8,21.5l-61.3,228.7
			C515.1,510.1,509.1,516.1,501.4,518.1z"/>
	</g>
</g>
</svg>
